<svg width="72" height="72" viewBox="0 0 72 72" fill="none" xmlns="http://www.w3.org/2000/svg">
<path d="M61.73 71.35H10.63C8.0325 71.3447 5.54291 70.3105 3.70619 68.4738C1.86948 66.6371 0.835287 64.1475 0.830002 61.55V10.45C0.835287 7.85251 1.86948 5.36291 3.70619 3.5262C5.54291 1.68948 8.0325 0.655289 10.63 0.650004H61.73C64.3275 0.655289 66.8171 1.68948 68.6538 3.5262C70.4905 5.36291 71.5247 7.85251 71.53 10.45V61.55C71.5247 64.1475 70.4905 66.6371 68.6538 68.4738C66.8171 70.3105 64.3275 71.3447 61.73 71.35ZM10.63 4.65C9.09175 4.65 7.61649 5.26108 6.52878 6.34879C5.44107 7.4365 4.83 8.91175 4.83 10.45V61.55C4.83 63.0883 5.44107 64.5635 6.52878 65.6512C7.61649 66.7389 9.09175 67.35 10.63 67.35H61.73C63.2683 67.35 64.7435 66.7389 65.8312 65.6512C66.9189 64.5635 67.53 63.0883 67.53 61.55V10.45C67.53 8.91175 66.9189 7.4365 65.8312 6.34879C64.7435 5.26108 63.2683 4.65 61.73 4.65H10.63Z" fill="#535353"/>
<path d="M23.18 71.37C22.6496 71.37 22.1409 71.1593 21.7658 70.7842C21.3907 70.4091 21.18 69.9004 21.18 69.37V2.63C21.18 2.09957 21.3907 1.59086 21.7658 1.21579C22.1409 0.840718 22.6496 0.630005 23.18 0.630005C23.7104 0.630005 24.2191 0.840718 24.5942 1.21579C24.9693 1.59086 25.18 2.09957 25.18 2.63V69.37C25.18 69.9004 24.9693 70.4091 24.5942 70.7842C24.2191 71.1593 23.7104 71.37 23.18 71.37Z" fill="#535353"/>
</svg>
